<?xml version="1.0" encoding="UTF-8" standalone="no"?>
<!-- Created with Inkscape (http://www.inkscape.org/) -->

<svg
   xmlns:dc="http://purl.org/dc/elements/1.1/"
   xmlns:cc="http://creativecommons.org/ns#"
   xmlns:rdf="http://www.w3.org/1999/02/22-rdf-syntax-ns#"
   xmlns:svg="http://www.w3.org/2000/svg"
   xmlns="http://www.w3.org/2000/svg"
   xmlns:sodipodi="http://sodipodi.sourceforge.net/DTD/sodipodi-0.dtd"
   xmlns:inkscape="http://www.inkscape.org/namespaces/inkscape"
   width="544"
   height="78.07206"
   viewBox="0 0 544 78.07206"
   version="1.1"
   id="SVGRoot"
   inkscape:version="0.92.3 (3ce5693, 2018-03-11)"
   sodipodi:docname="child_lower_final.svg">
  <sodipodi:namedview
     id="base"
     pagecolor="#ffffff"
     bordercolor="#666666"
     borderopacity="1.0"
     inkscape:pageopacity="0.0"
     inkscape:pageshadow="2"
     inkscape:zoom="1.6011029"
     inkscape:cx="272"
     inkscape:cy="39.036029"
     inkscape:document-units="px"
     inkscape:current-layer="layer1"
     showgrid="false"
     inkscape:window-width="1325"
     inkscape:window-height="744"
     inkscape:window-x="41"
     inkscape:window-y="24"
     inkscape:window-maximized="1" />
  <defs
     id="defs880" />
  <metadata
     id="metadata883">
    <rdf:RDF>
      <cc:Work
         rdf:about="">
        <dc:format>image/svg+xml</dc:format>
        <dc:type
           rdf:resource="http://purl.org/dc/dcmitype/StillImage" />
        <dc:title></dc:title>
      </cc:Work>
    </rdf:RDF>
  </metadata>
   <script type="text/JavaScript">
            <![CDATA[
               function loadToothRelatedDetails() {
                  alert(this.id)
                           }


            ]]>
         </script>
  <g
     id="layer1"
     inkscape:groupmode="layer"
     inkscape:label="Layer 1"
     transform="translate(-129.5625,-354.71397)">
    <polyline
       transform="translate(-49.9375,115.21397)"
       id="25_u_1"
       points="405,267,400,252,400,247,401,246,401,245,402,244,402,243,436,243,437,244,438,245,438,246,439,247,438,248,438,249,437,250,437,252,436,254,436,255,430,265,425,267,420,268,415,269,410,268,405,267"
       originalColor="white"
       style="fill:#ffffff;stroke:#000000;stroke-width:1;stroke-opacity:0.3"
       onclick="loadToothRelatedDetails(this)" />
    <polyline
       transform="translate(-49.9375,115.21397)"
       id="25_u_2"
       points="405,267,404,275,405,279,405,280,412,298,412,308,413,310,414,311,416,311,418,311,419,310,421,309,422,308,423,307,424,306,424,305,425,304,425,303,425,302,425,301,430,265,425,267,420,268,415,269,410,268,405,267"
       originalColor="yellow"
       style="fill:#ffff00;stroke:#000000;stroke-width:1;stroke-opacity:0.3"
       onclick="loadToothRelatedDetails(this)" />
    <polyline
       transform="translate(-49.9375,115.21397)"
       id="26_u_1"
       points="352,267,344,253,344,247,345,246,346,245,347,244,348,243,349,243,380,243,382,243,385,243,386,244,387,245,387,246,387,247,386,248,385,249,383,260,377,265,375,266,373,267,370,268,368,269,360,269,352,267"
       originalColor="white"
       style="fill:#ffffff;stroke:#000000;stroke-width:1;stroke-opacity:0.3"
       onclick="loadToothRelatedDetails(this)" />
    <polyline
       transform="translate(-49.9375,115.21397)"
       id="26_u_2"
       points="352,267,350,275,353,285,358,298,358,307,359,308,360,309,365,309,366,308,368,307,370,306,372,303,373,298,374,290,375,280,376,270,377,265,375,266,373,267,370,268,368,269,360,269,352,267"
       originalColor="yellow"
       style="fill:#ffff00;stroke:#000000;stroke-width:1;stroke-opacity:0.3"
       onclick="loadToothRelatedDetails(this)" />
    <polyline
       transform="translate(-49.9375,115.21397)"
       id="27_u_1"
       points="297,267,292,254,292,248,293,247,299,245,302,244,304,243,306,242,308,241,317,241,318,242,320,242,322,243,324,244,326,245,328,246,330,247,330,254,324,268,321,269,320,269,318,270,316,270,314,270,312,271,310,271,305,270,297,267"
       originalColor="white"
       style="fill:#ffffff;stroke:#000000;stroke-width:1;stroke-opacity:0.3"
       onclick="loadToothRelatedDetails(this)" />
    <polyline
       transform="translate(-49.9375,115.21397)"
       id="27_u_2"
       points="297,267,298,288,299,289,299,290,300,291,300,292,301,293,301,294,301,300,300,302,300,304,299,306,299,308,298,310,298,312,297,313,297,314,298,315,299,316,300,316,302,316,304,314,306,312,308,310,310,308,312,306,313,304,314,302,315,300,316,298,317,296,318,294,319,292,319,291,320,290,320,288,321,286,321,284,321,282,322,280,322,278,322,276,323,274,323,272,323,270,323,268,321,269,320,269,318,270,316,270,314,270,312,271,310,271,305,270,297,267"
       originalColor="yellow"
       style="fill:#ffff00;stroke:#000000;stroke-width:1;stroke-opacity:0.3"
       onclick="loadToothRelatedDetails(this)" />
    <polyline
       transform="translate(-49.9375,115.21397)"
       id="28_u_1"
       points="242,270,238,265,238,264,237,263,237,262,236,261,236,260,235,259,235,258,234,257,234,256,234,255,234,250,235,249,236,248,237,247,238,246,239,245,240,244,241,243,242,243,243,242,244,242,245,242,246,241,247,241,248,241,250,241,252,241,260,241,262,242,264,242,266,243,268,243,270,244,272,244,273,245,274,246,275,247,276,248,277,249,277,250,277,256,268,270,264,269,262,270,260,270,255,271,250,271,245,270,242,270"
       originalColor="white"
       style="fill:#ffffff;stroke:#000000;stroke-width:1;stroke-opacity:0.3"
       onclick="loadToothRelatedDetails(this)" />
    <polyline
       transform="translate(-49.9375,115.21397)"
       id="28_u_2"
       points="242,270,246,288,247,289,247,290,248,291,248,292,249,293,249,294,249,295,249,296,250,310,251,311,252,311,253,311,254,311,255,310,256,308,257,306,261,302,262,300,264,298,265,296,265,294,265,292,266,290,266,288,267,286,267,284,268,282,268,280,268,278,268,270,264,269,262,270,260,270,255,271,250,271,245,270,242,270"
       originalColor="yellow"
       style="fill:#ffff00;stroke:#000000;stroke-width:1;stroke-opacity:0.3"
       onclick="loadToothRelatedDetails(this)" />
    <polyline
       transform="translate(-49.9375,115.21397)"
       id="29_u_1"
       points="187,265,186,264,185,263,184,262,183,261,182,260,182,259,182,258,181,257,181,256,181,255,181,254,180,253,180,252,180,250,180,249,180,248,181,247,181,246,181,245,182,244,183,243,183,243,184,243,185,243,186,242,187,242,188,242,189,242,190,242,191,242,200,241,210,241,215,242,220,243,221,244,222,245,223,246,223,247,224,248,224,250,215,265,212,267,210,267,195,268,187,265"
       originalColor="white"
       style="fill:#ffffff;stroke:#000000;stroke-width:1;stroke-opacity:0.3"
       onclick="loadToothRelatedDetails(this)" />
    <polyline
       transform="translate(-49.9375,115.21397)"
       id="29_u_2"
       points="187,265,188,270,189,271,189,272,190,273,190,274,191,275,191,276,192,277,192,278,193,279,193,279,193,280,194,281,194,282,194,283,195,284,195,285,195,286,195,287,195,288,195,289,194,290,194,292,193,300,192,303,192,304,195,311,196,311,197,311,200,310,202,308,204,306,205,304,206,302,207,300,208,298,209,296,210,294,210,292,211,290,211,288,212,286,212,284,213,282,213,280,214,278,214,276,215,274,215,265,212,267,210,267,195,268,187,265"
       originalColor="yellow"
       style="fill:#ffff00;stroke:#000000;stroke-width:1;stroke-opacity:0.3"
       onclick="loadToothRelatedDetails(this)" />
    <polyline
       transform="translate(-49.9375,115.21397)"
       id="24_u_1"
       points="469,267,464,262,464,261,463,260,463,259,463,256,463,255,462,253,461,252,461,245,461,244,497,244,497,245,498,246,499,247,499,253,493,266,490,267,486,268,485,269,480,269,469,267"
       originalColor="white"
       style="fill:#ffffff;stroke:#000000;stroke-width:1;stroke-opacity:0.3"
       onclick="loadToothRelatedDetails(this)" />
    <polyline
       transform="translate(-49.9375,115.21397)"
       id="24_u_2"
       points="469,267,470,275,471,278,471,280,471,282,471,284,471,286,471,288,471,290,471,292,471,294,472,296,472,298,473,300,473,302,474,304,474,306,476,308,477,310,479,311,482,311,484,311,486,310,487,308,487,307,487,302,486,300,486,299,487,298,493,280,494,278,494,277,493,266,490,267,486,268,485,269,480,269,469,267"
       originalColor="yellow"
       style="fill:#ffff00;stroke:#000000;stroke-width:1;stroke-opacity:0.3"
       onclick="loadToothRelatedDetails(this)" />
    <polyline
       transform="translate(-49.9375,115.21397)"
       id="23_u_1"
       points="522,266,521,264,519,260,518,258,517,256,516,254,515.5,252,515,250,514,248,514,247,514,246,515,244,516,244,517,243,550,243,551,243,552,243,553,244,554,245,555,246,556,247,556,248,556,249,556,250,556,252,550,266,546,268,544,268,542,268.5,530,268.5,522,266"
       originalColor="white"
       style="fill:#ffffff;stroke:#000000;stroke-width:1;stroke-opacity:0.3"
       onclick="loadToothRelatedDetails(this)" />
    <polyline
       transform="translate(-49.9375,115.21397)"
       id="23_u_2"
       points="522,266,524,275,525,278,525,279,525.5,280,525.5,281,526,282,526,283,526,284,526,285,526,286,526,287,528,298,528,299,528,301,528.5,303,529,304,529,305,530,306,531,307,532,308,533,309,534,309,535,310,539,310,540,310,541,309,542,308,542,307,542,300,542,299,542.5,298,542.5,297,543,296,549,280,549,279,550,278,550,277,550,276,550,266,546,268,544,268,542,268.5,530,268.5,522,266"
       originalColor="yellow"
       style="fill:#ffff00;stroke:#000000;stroke-width:1;stroke-opacity:0.3"
       onclick="loadToothRelatedDetails(this)" />
    <polyline
       transform="translate(-49.9375,115.21397)"
       id="22_u_1"
       points="576,267,570,258,569,247,584,240,589,240,605,246,607,246,608,249,609,252,603,267,598,270,596,271,586,271,576,267"
       originalColor="white"
       style="fill:#ffffff;stroke:#000000;stroke-width:1;stroke-opacity:0.3"
       onclick="loadToothRelatedDetails(this)" />
    <polyline
       transform="translate(-49.9375,115.21397)"
       id="22_u_2"
       points="576,267,578,276,578,277,578.5,278,578.5,279,578.5,280,579,281,579,282,579,283,579.5,284,580,286,581,288,582,290,583,292,584,294,585,296,586,298,587,300,588,302,589,304,590,306,591,308,592,310,593,312,594,314,596,316,597,316,600,317,601,316,602,314,603,312,603,311,603,310,603,309,602,308,602,307,601,305,601,303,600,301,600,298,600,295,600.5,293,600.5,292,603,267,598,270,596,271,586,271,576,267"
       originalColor="yellow"
       style="fill:#ffff00;stroke:#000000;stroke-width:1;stroke-opacity:0.3"
       onclick="loadToothRelatedDetails(this)" />
    <polyline
       transform="translate(-49.9375,115.21397)"
       id="21_u_1"
       points="632,269,629,266,628,265,627,263,626,261,625,259,625,257,625,250,626,248,627,246,628,245,629,244,630,244,631,243,632,243,633,242,634,242,635,241,636,241,637,241,638,240,639,240,642,240,646,240,647,241,650,241,655,242,660,243,662,244,663,245,664,246,665,247,666,248,666,255,660,267,658,268,656,269,654,270,652,271,640,271,632,269"
       originalColor="white"
       style="fill:#ffffff;stroke:#000000;stroke-width:1;stroke-opacity:0.3"
       onclick="loadToothRelatedDetails(this)" />
    <polyline
       transform="translate(-49.9375,115.21397)"
       id="21_u_2"
       points="632,269,633,275,633,276,633,278,633.5,279,634,285,637,298,637.5,300,639,302,640,304,642,306,643,308,644,310,646,312,648,312,649,312,650,311,650,310,650,309,650,302,650,301,650.5,300,651,299,660,267,658,268,656,269,654,270,652,271,640,271,632,269"
       originalColor="yellow"
       style="fill:#ffff00;stroke:#000000;stroke-width:1;stroke-opacity:0.3"
       onclick="loadToothRelatedDetails(this)" />
    <polyline
       transform="translate(-49.9375,115.21397)"
       id="20_u_1"
       points="687,267,684,260,682,258,681,256,680,250,680,249,681,247,682,246,683,245,684,244,685,243,686,242,700,241,710,241,712,242,714,242,716,243,718,243,720,244,721,245,722,246,723,247,723,250,722,252,721,254,721,256,720,258,720,260,719,262,714,267,710,269,705,269,695,269,687,267"
       originalColor="white"
       style="fill:#ffffff;stroke:#000000;stroke-width:1;stroke-opacity:0.3"
       onclick="loadToothRelatedDetails(this)" />
    <polyline
       transform="translate(-49.9375,115.21397)"
       id="20_u_2"
       points="687,267,689,275,689,277,690,280,690,282,691,284,691,286,692,288,692,290,693,292,693,294,694,296,695,298,696,300,697,302,698,304,699,306,700,308,702,310,705,312,708,312,709,311,710,310,710,309,711,308,711,305,711,304,710,303,710,301,709,300,709,299,708,298,708,297,708,290,708,289,708,288,714,267,710,269,705,269,695,269,687,267"
       originalColor="yellow"
       style="fill:#ffff00;stroke:#000000;stroke-width:1;stroke-opacity:0.3"
       onclick="loadToothRelatedDetails(this)" />
  </g>
</svg>
